<svg version="1.1" id="card_discover" xmlns="http://www.w3.org/2000/svg" xmlns:xlink="http://www.w3.org/1999/xlink" x="0px" y="0px"
	 width="480px" height="300px" viewBox="0 0 480 300" enable-background="new 0 0 480 300" xml:space="preserve">
<g>
	<g>
		<linearGradient id="lg_gradient_4" gradientUnits="userSpaceOnUse" x1="239.9995" y1="1" x2="239.9995" y2="296.8953">
			<stop  offset="0" style="stop-color:#FFFFFF"/>
			<stop  offset="1" style="stop-color:#CFD0D0"/>
		</linearGradient>
		<path fill="url(#lg_gradient_4)" d="M480,270c0,16.5-13.5,30-30,30H30c-16.5,0-30-13.5-30-30V30C0,13.5,13.5,0,30,0h420
			c16.5,0,30,13.5,30,30V270z"/>
	</g>
	<linearGradient id="lg_gradient_5" gradientUnits="userSpaceOnUse" x1="266.9336" y1="309.3486" x2="266.9336" y2="96.9902">
		<stop  offset="0" style="stop-color:#F26722"/>
		<stop  offset="1" style="stop-color:#EC8023"/>
	</linearGradient>
	<path fill="url(#lg_gradient_5)" d="M53.868,300H450c16.5,0,30-13.5,30-30V104.885C431.842,166.399,302.407,285.87,53.868,300z"/>
	<g>
		<g>
			<path fill="#CFD0D0" d="M450,1c15.99,0,29,13.009,29,29v240c0,15.99-13.01,29-29,29H30c-15.991,0-29-13.01-29-29V30
				C1,14.009,14.009,1,30,1H450 M450,0H30C13.5,0,0,13.5,0,30v240c0,16.5,13.5,30,30,30h420c16.5,0,30-13.5,30-30V30
				C480,13.5,466.5,0,450,0L450,0z"/>
		</g>
	</g>
	<path opacity="0.5" fill="#FFFFFF" d="M30,2h418c16.5,0,30,13.5,30,30v-1c0-16.5-13.5-30-30-30H30C13.5,1,0,14.5,0,31v1
		C0,15.5,13.5,2,30,2z"/>
	<path opacity="0.5" fill="#FFFFFF" d="M449,298H31c-16.5,0-30-13.5-30-30v1c0,16.5,13.5,30,30,30h418c16.5,0,30-13.5,30-30v-1
		C479,284.5,465.5,298,449,298z"/>
</g>
<g>
	<circle fill="#FFFFFF" cx="253.729" cy="115.333" r="31.667"/>
	<path fill="#FFFFFF" d="M83.194,130.501c-3.735,3.345-8.545,4.788-16.189,4.788h-3.176V95.535h3.176
		c7.644,0,12.271,1.353,16.189,4.864c4.09,3.606,6.528,9.189,6.528,14.955C89.722,121.131,87.284,126.908,83.194,130.501
		L83.194,130.501z M69.376,85.355H52v60.11h17.285c9.171,0,15.804-2.154,21.623-6.936c6.903-5.678,10.998-14.241,10.998-23.09
		C101.905,97.693,88.538,85.355,69.376,85.355"/>
	<polyline fill="#FFFFFF" points="107.361,145.465 119.169,145.465 119.169,85.355 107.361,85.355 107.361,145.465 	"/>
	<path fill="#FFFFFF" d="M148.082,108.413c-7.097-2.608-9.187-4.328-9.187-7.562c0-3.788,3.719-6.668,8.817-6.668
		c3.544,0,6.452,1.44,9.551,4.854l6.171-8.009c-5.088-4.427-11.175-6.676-17.816-6.676c-10.713,0-18.897,7.393-18.897,17.208
		c0,8.299,3.813,12.533,14.905,16.508c4.637,1.615,6.994,2.691,8.178,3.426c2.363,1.533,3.549,3.688,3.549,6.212
		c0,4.873-3.912,8.474-9.19,8.474c-5.634,0-10.174-2.791-12.902-8.018l-7.624,7.308c5.44,7.921,11.985,11.448,20.992,11.448
		c12.268,0,20.896-8.123,20.896-19.748C165.524,117.616,161.535,113.286,148.082,108.413"/>
	<path fill="#FFFFFF" d="M169.249,115.439c0,17.684,13.999,31.381,31.998,31.381c5.088,0,9.45-0.996,14.817-3.51v-13.799
		c-4.732,4.691-8.914,6.579-14.277,6.579c-11.903,0-20.36-8.564-20.36-20.737c0-11.531,8.722-20.637,19.82-20.637
		c5.625,0,9.904,1.982,14.817,6.76V87.679c-5.18-2.604-9.458-3.679-14.548-3.679C183.609,84,169.249,97.972,169.249,115.439"/>
	<polyline fill="#FFFFFF" points="311.845,125.732 295.668,85.355 282.763,85.355 308.49,147 314.848,147 341.025,85.355
		328.214,85.355 311.845,125.732 	"/>
	<polyline fill="#FFFFFF" points="346.398,145.465 379.93,145.465 379.93,135.289 358.212,135.289 358.212,119.053 379.099,119.053
		379.099,108.875 358.212,108.875 358.212,95.535 379.93,95.535 379.93,85.355 346.398,85.355 346.398,145.465 	"/>
	<path fill="#FFFFFF" d="M403,113.023h-3.44V94.807h3.628c7.379,0,11.376,3.075,11.376,8.923
		C414.563,109.766,410.566,113.023,403,113.023L403,113.023z M426.722,103.096c0-11.263-7.805-17.741-21.446-17.741h-17.542v60.11
		h11.826v-24.16h1.548l16.35,24.16H432l-19.098-25.32C421.822,118.338,426.722,112.295,426.722,103.096"/>
</g>
<g>
	<radialGradient id="rg_gradient_1" cx="253.7285" cy="114" r="38.0894" gradientUnits="userSpaceOnUse">
		<stop  offset="0" style="stop-color:#FFFFFF"/>
		<stop  offset="1" style="stop-color:#F26722"/>
	</radialGradient>
	<circle fill="url(#rg_gradient_1)" cx="253.729" cy="114" r="31.667"/>
	<path fill="#0B1720" d="M83.194,129.168c-3.735,3.345-8.545,4.788-16.189,4.788h-3.176V94.202h3.176
		c7.644,0,12.271,1.353,16.189,4.864c4.09,3.606,6.528,9.189,6.528,14.955C89.722,119.798,87.284,125.575,83.194,129.168
		L83.194,129.168z M69.376,84.022H52v60.11h17.285c9.171,0,15.804-2.154,21.623-6.936c6.903-5.678,10.998-14.241,10.998-23.09
		C101.905,96.36,88.538,84.022,69.376,84.022"/>
	<polyline fill="#0B1720" points="107.361,144.132 119.169,144.132 119.169,84.022 107.361,84.022 107.361,144.132 	"/>
	<path fill="#0B1720" d="M148.082,107.08c-7.097-2.608-9.187-4.328-9.187-7.562c0-3.788,3.719-6.668,8.817-6.668
		c3.544,0,6.452,1.44,9.551,4.854l6.171-8.009c-5.088-4.427-11.175-6.676-17.816-6.676c-10.713,0-18.897,7.393-18.897,17.208
		c0,8.299,3.813,12.533,14.905,16.508c4.637,1.615,6.994,2.691,8.178,3.426c2.363,1.533,3.549,3.688,3.549,6.212
		c0,4.873-3.912,8.474-9.19,8.474c-5.634,0-10.174-2.791-12.902-8.018l-7.624,7.308c5.44,7.921,11.985,11.448,20.992,11.448
		c12.268,0,20.896-8.123,20.896-19.748C165.524,116.283,161.535,111.953,148.082,107.08"/>
	<path fill="#0B1720" d="M169.249,114.106c0,17.684,13.999,31.381,31.998,31.381c5.088,0,9.45-0.996,14.817-3.51v-13.799
		c-4.732,4.691-8.914,6.579-14.277,6.579c-11.903,0-20.36-8.564-20.36-20.737c0-11.531,8.722-20.637,19.82-20.637
		c5.625,0,9.904,1.982,14.817,6.76V86.346c-5.18-2.604-9.458-3.679-14.548-3.679C183.609,82.667,169.249,96.639,169.249,114.106"/>
	<polyline fill="#0B1720" points="311.845,124.399 295.668,84.022 282.763,84.022 308.49,145.667 314.848,145.667 341.025,84.022
		328.214,84.022 311.845,124.399 	"/>
	<polyline fill="#0B1720" points="346.398,144.132 379.93,144.132 379.93,133.956 358.212,133.956 358.212,117.72 379.099,117.72
		379.099,107.542 358.212,107.542 358.212,94.202 379.93,94.202 379.93,84.022 346.398,84.022 346.398,144.132 	"/>
	<path fill="#0B1720" d="M403,111.69h-3.44V93.474h3.628c7.379,0,11.376,3.075,11.376,8.923
		C414.563,108.433,410.566,111.69,403,111.69L403,111.69z M426.722,101.763c0-11.263-7.805-17.741-21.446-17.741h-17.542v60.11
		h11.826v-24.16h1.548l16.35,24.16H432l-19.098-25.32C421.822,117.005,426.722,110.962,426.722,101.763"/>
</g>
<g>
	<g>
		<path fill="#FFFFFF" d="M138.241,201v-33.817l23.092,24.158v-22.005h4.778v33.592l-23.092-24.097V201H138.241z"/>
		<path fill="#FFFFFF" d="M191.171,173.827h-12.694v7.608h12.325v4.491h-12.325v10.582h12.694V201h-17.473v-31.664h17.473V173.827z"
			/>
		<path fill="#FFFFFF" d="M206.183,173.827V201h-4.778v-27.173h-7.28v-4.491h19.318v4.491H206.183z"/>
		<path fill="#FFFFFF" d="M221.154,169.336l8.244,21.164l8.613-22.702l8.245,22.702l8.756-21.164h5.189l-14.15,33.674l-8.142-22.436
			l-8.49,22.456l-13.453-33.694H221.154z"/>
		<path fill="#FFFFFF" d="M261.123,185.024c0-4.457,1.635-8.285,4.902-11.484c3.254-3.199,7.164-4.799,11.73-4.799
			c4.512,0,8.381,1.613,11.607,4.84c3.24,3.227,4.859,7.103,4.859,11.628c0,4.553-1.627,8.415-4.881,11.587
			c-3.268,3.186-7.211,4.778-11.832,4.778c-4.088,0-7.76-1.415-11.014-4.245C262.914,194.198,261.123,190.097,261.123,185.024z
			 M265.943,185.076c0,3.497,1.176,6.372,3.527,8.626c2.338,2.254,5.037,3.381,8.1,3.381c3.322,0,6.125-1.147,8.408-3.442
			c2.283-2.322,3.426-5.149,3.426-8.482c0-3.374-1.129-6.202-3.385-8.483c-2.242-2.295-5.018-3.442-8.326-3.442
			c-3.295,0-6.076,1.147-8.346,3.442C267.078,178.942,265.943,181.743,265.943,185.076z"/>
		<path fill="#FFFFFF" d="M310.957,187.506L320.76,201h-5.844l-9.045-12.961h-0.861V201h-4.777v-31.664h5.598
			c4.184,0,7.205,0.786,9.064,2.358c2.051,1.75,3.076,4.061,3.076,6.932c0,2.242-0.643,4.17-1.928,5.783
			S313.062,187.055,310.957,187.506z M305.01,183.876h1.518c4.525,0,6.789-1.729,6.789-5.188c0-3.24-2.201-4.86-6.604-4.86h-1.703
			V183.876z"/>
		<path fill="#FFFFFF" d="M330.297,181.969l12.324-12.633H349l-14.314,14.335L349.082,201h-6.398l-11.402-14.089l-0.984,0.984V201
			h-4.779v-31.664h4.779V181.969z"/>
	</g>
	<g>
		<path fill="#010101" d="M138.241,200v-33.817l23.092,24.158v-22.005h4.778v33.592l-23.092-24.097V200H138.241z"/>
		<path fill="#010101" d="M191.171,172.827h-12.694v7.608h12.325v4.491h-12.325v10.582h12.694V200h-17.473v-31.664h17.473V172.827z"
			/>
		<path fill="#010101" d="M206.183,172.827V200h-4.778v-27.173h-7.28v-4.491h19.318v4.491H206.183z"/>
		<path fill="#010101" d="M221.154,168.336l8.244,21.164l8.613-22.702l8.245,22.702l8.756-21.164h5.189l-14.15,33.674l-8.142-22.436
			l-8.49,22.456l-13.453-33.694H221.154z"/>
		<path fill="#010101" d="M261.123,184.024c0-4.457,1.635-8.285,4.902-11.484c3.254-3.199,7.164-4.799,11.73-4.799
			c4.512,0,8.381,1.613,11.607,4.84c3.24,3.227,4.859,7.103,4.859,11.628c0,4.553-1.627,8.415-4.881,11.587
			c-3.268,3.186-7.211,4.778-11.832,4.778c-4.088,0-7.76-1.415-11.014-4.245C262.914,193.198,261.123,189.097,261.123,184.024z
			 M265.943,184.076c0,3.497,1.176,6.372,3.527,8.626c2.338,2.254,5.037,3.381,8.1,3.381c3.322,0,6.125-1.147,8.408-3.442
			c2.283-2.322,3.426-5.149,3.426-8.482c0-3.374-1.129-6.202-3.385-8.483c-2.242-2.295-5.018-3.442-8.326-3.442
			c-3.295,0-6.076,1.147-8.346,3.442C267.078,177.942,265.943,180.743,265.943,184.076z"/>
		<path fill="#010101" d="M310.957,186.506L320.76,200h-5.844l-9.045-12.961h-0.861V200h-4.777v-31.664h5.598
			c4.184,0,7.205,0.786,9.064,2.358c2.051,1.75,3.076,4.061,3.076,6.932c0,2.242-0.643,4.17-1.928,5.783
			S313.062,186.055,310.957,186.506z M305.01,182.876h1.518c4.525,0,6.789-1.729,6.789-5.188c0-3.24-2.201-4.86-6.604-4.86h-1.703
			V182.876z"/>
		<path fill="#010101" d="M330.297,180.969l12.324-12.633H349l-14.314,14.335L349.082,200h-6.398l-11.402-14.089l-0.984,0.984V200
			h-4.779v-31.664h4.779V180.969z"/>
	</g>
</g>
</svg>