<svg version="1.1" id="card_mastercard" xmlns="http://www.w3.org/2000/svg" xmlns:xlink="http://www.w3.org/1999/xlink" x="0px" y="0px"
	 width="480px" height="300px" viewBox="0 0 480 300" enable-background="new 0 0 480 300" xml:space="preserve">
<pattern  x="-156" y="-156" width="10" height="10" patternUnits="userSpaceOnUse" id="Neues_Musterfeld_1" viewBox="0 -10 10 10" overflow="visible">
	<g>
		<polygon fill="none" points="0,0 10,0 10,-10 0,-10 		"/>
		<polygon fill="#FFFFFF" points="2,-7 1,-7 1,-10 2,-10 		"/>
		<polygon fill="#FFFFFF" points="3,-9 3,-8 0,-8 0,-9 		"/>
		<polygon id="polygon_1" fill="none" points="0,0 0,-10 10,-10 10,0 		"/>
	</g>
</pattern>
<g>
	<radialGradient id="lg_gradient_3" cx="114.0059" cy="-25.4912" r="463.1922" gradientUnits="userSpaceOnUse">
		<stop  offset="0" style="stop-color:#A0C9E3"/>
		<stop  offset="1" style="stop-color:#01588F"/>
	</radialGradient>
	<path fill="url(#lg_gradient_3)" d="M480,270c0,16.5-13.5,30-30,30H30c-16.5,0-30-13.5-30-30V30C0,13.5,13.5,0,30,0h420
		c16.5,0,30,13.5,30,30V270z"/>
	<g opacity="0.5">
		<path fill="#1D7BB9" d="M450,1c15.99,0,29,13.009,29,29v240c0,15.99-13.01,29-29,29H30c-15.991,0-29-13.01-29-29V30
			C1,14.009,14.009,1,30,1H450 M450,0H30C13.5,0,0,13.5,0,30v240c0,16.5,13.5,30,30,30h420c16.5,0,30-13.5,30-30V30
			C480,13.5,466.5,0,450,0L450,0z"/>
	</g>
</g>
<g opacity="0.1">
	<path fill="url(#Neues_Musterfeld_1)" d="M480,270c0,16.5-13.5,30-30,30H30c-16.5,0-30-13.5-30-30V30C0,13.5,13.5,0,30,0h420
		c16.5,0,30,13.5,30,30V270z"/>
</g>
<path fill="#BCDAED" d="M31,2h418c16.5,0,30,13.5,30,30v-1c0-16.5-13.5-30-30-30H31C14.5,1,1,14.5,1,31v1C1,15.5,14.5,2,31,2z"/>
<path opacity="0.7" fill="#BCDAED" d="M449,298H31c-16.5,0-30-13.5-30-30v1c0,16.5,13.5,30,30,30h418c16.5,0,30-13.5,30-30v-1
	C479,284.5,465.5,298,449,298z"/>
<g>
	<path fill="#A0C9E3" d="M302.194,59c-23.175,0.006-44.296,8.812-60.22,23.265c-15.928-14.438-37.039-23.242-60.191-23.242
		c-0.193,0-0.387-0.001-0.579,0C131.912,59.337,92,99.527,92,149.001c0,49.668,40.224,89.976,89.783,89.976
		c23.151,0,44.259-8.805,60.187-23.244c15.936,14.464,37.076,23.273,60.271,23.268c49.588-0.014,89.773-40.305,89.76-89.999
		c0-0.017,0-0.03,0-0.046C391.987,99.261,351.781,58.987,302.194,59z"/>
	<path fill="#941B1E" d="M181.204,57C131.912,57.314,92,97.505,92,146.979c0,49.668,40.224,89.976,89.783,89.976
		c23.26,0,44.461-8.883,60.414-23.443c0,0-0.002-0.002-0.006-0.004h0.02c3.268-2.983,6.314-6.202,9.115-9.636h-18.395
		c-2.457-2.974-4.688-6.069-6.695-9.268h31.726c1.929-3.095,3.676-6.309,5.228-9.634h-42.188c-1.439-3.091-2.688-6.248-3.753-9.453
		h49.696c2.996-8.971,4.621-18.567,4.621-28.539c0-6.613-0.716-13.06-2.069-19.268h-54.884c0.682-3.195,1.538-6.352,2.562-9.453
		h49.716c-1.112-3.3-2.403-6.516-3.872-9.633h-42.022c1.516-3.247,3.234-6.403,5.151-9.453h31.7
		c-2.108-3.368-4.443-6.586-6.968-9.633h-17.675c2.733-3.223,5.741-6.259,9.007-9.089C226.256,65.885,205.048,57,181.783,57
		C181.59,57,181.396,57,181.204,57z"/>
	<path fill="#F26722" d="M392,147.001c0.014,49.694-40.172,89.985-89.76,89.999c-49.586,0.012-89.792-40.26-89.805-89.954
		c0-0.016,0-0.029,0-0.045C212.423,97.307,252.609,57.013,302.194,57c49.587-0.013,89.793,40.261,89.806,89.955
		C392,146.971,392,146.984,392,147.001z"/>
	<path fill="#F8991D" d="M392,148.001c0.014,49.694-40.172,89.985-89.76,89.999c-49.586,0.012-89.792-40.26-89.805-89.954
		c0-0.016,0-0.029,0-0.045C212.423,98.307,252.609,58.013,302.194,58c49.587-0.013,89.793,40.261,89.806,89.955
		C392,147.971,392,147.984,392,148.001z"/>
	<path fill="#CB2026" d="M181.204,58.023C131.912,58.337,92,98.527,92,148.001c0,49.668,40.224,89.976,89.783,89.976
		c23.26,0,44.461-8.883,60.414-23.443c0,0-0.002-0.002-0.006-0.004h0.02c3.268-2.983,6.314-6.202,9.115-9.636h-18.395
		c-2.457-2.974-4.688-6.069-6.695-9.268h31.726c1.929-3.095,3.676-6.309,5.228-9.634h-42.188c-1.439-3.091-2.688-6.248-3.753-9.453
		h49.696c2.996-8.971,4.621-18.567,4.621-28.539c0-6.613-0.716-13.06-2.069-19.268h-54.884c0.682-3.195,1.538-6.352,2.562-9.453
		h49.716c-1.112-3.3-2.403-6.516-3.872-9.633h-42.022c1.516-3.247,3.234-6.403,5.151-9.453h31.7
		c-2.108-3.368-4.443-6.586-6.968-9.633h-17.675c2.733-3.223,5.741-6.259,9.007-9.089c-15.955-14.563-37.163-23.448-60.428-23.448
		C181.59,58.023,181.396,58.022,181.204,58.023z"/>
	<g transform="translate(-13.74405,15.9939)">
		<path fill="#21205F" d="M225.32,157.82l1.195-8.143c-0.653,0-1.613,0.283-2.461,0.283c-3.329,0-3.745-1.783-3.482-3.085
			l3.277-16.379h5.06l1.042-9.244h-4.768l0.971-5.602h-9.972c-0.212,0.212-5.643,31.503-5.643,35.314
			c0,5.642,3.16,8.151,7.616,8.112C221.642,159.048,224.363,158.078,225.32,157.82z"/>
		<path fill="#21205F" d="M228.347,142.295c0,13.54,8.916,16.756,16.514,16.756c7.013,0,10.689-1.629,10.689-1.629l1.684-9.243
			c0,0-5.924,2.417-10.741,2.417c-10.266,0-8.466-7.671-8.466-7.671l19.722,0.061c0,0,1.254-6.208,1.254-8.737
			c0-6.313-3.432-14.064-13.927-14.064C235.466,120.187,228.347,130.567,228.347,142.295z M245.112,128.764
			c5.396,0,4.399,6.076,4.399,6.568H238.9C238.9,134.703,239.902,128.764,245.112,128.764z"/>
		<path fill="#21205F" d="M305.645,157.817l1.711-10.442c0,0-4.694,2.357-7.911,2.357c-6.781,0-9.502-5.19-9.502-10.766
			c0-11.311,5.834-17.533,12.33-17.533c4.872,0,8.78,2.741,8.78,2.741l1.56-10.148c0,0-4.615-3.339-9.581-3.358
			c-14.941-0.059-23.491,10.366-23.491,28.387c0,11.945,6.332,20.075,17.738,20.075
			C300.506,159.129,305.645,157.817,305.645,157.817z"/>
		<path fill="#21205F" d="M172.741,120.334c-6.553,0-11.578,2.112-11.578,2.112l-1.388,8.252c0,0,4.146-1.689,10.417-1.689
			c3.559,0,6.163,0.401,6.163,3.301c0,1.761-0.317,2.41-0.317,2.41s-2.809-0.234-4.11-0.234c-9.333,0-16.952,3.535-16.952,14.195
			c0,8.403,5.698,10.327,9.229,10.327c6.745,0,9.415-4.267,9.568-4.278l-0.076,3.542c0,0,8.415,0,8.416,0l3.756-26.383
			C185.87,120.694,176.125,120.334,172.741,120.334z M174.198,141.758c0.185,1.608-0.416,9.225-6.173,9.225
			c-2.968,0-3.74-2.275-3.74-3.615c0-2.624,1.422-5.771,8.426-5.771C174.343,141.596,173.924,141.712,174.198,141.758z"/>
		<path fill="#21205F" d="M194.816,158.817c2.154,0,14.462,0.55,14.462-12.182c0-11.902-11.394-9.549-11.394-14.332
			c0-2.379,1.859-3.127,5.253-3.127c1.347,0,6.531,0.429,6.531,0.429l1.207-8.459c0,0.001-3.357-0.752-8.818-0.752
			c-7.074,0-14.251,2.829-14.251,12.508c0,10.971,11.969,9.867,11.969,14.488c0,3.083-3.344,3.337-5.921,3.337
			c-4.459,0-8.474-1.533-8.488-1.459l-1.276,8.372C184.32,157.711,186.798,158.817,194.816,158.817z"/>
		<path fill="#21205F" d="M384.496,112.66l-1.729,12.906c0,0-3.6-4.981-9.232-4.981c-10.598,0-16.061,10.584-16.061,22.742
			c0,7.852,3.896,15.545,11.855,15.545c5.727,0,8.9-4.003,8.9-4.003l-0.42,3.419h9.3l7.304-45.557L384.496,112.66z M380.391,137.744
			c0,5.059-2.501,11.819-7.684,11.819c-3.439,0-5.053-2.895-5.053-7.437c0-7.43,3.328-12.328,7.53-12.328
			C378.624,129.799,380.391,132.165,380.391,137.744z"/>
		<path fill="#21205F" d="M120.982,158.325l5.82-34.395l0.855,34.395h6.585l12.285-34.395l-5.442,34.395h9.787l7.536-45.619
			l-15.546-0.118l-9.246,27.928l-0.252-27.81h-14.249l-7.644,45.619H120.982L120.982,158.325z"/>
		<path fill="#21205F" d="M268.266,158.389c2.783-15.857,3.773-28.379,11.889-25.785c1.164-6.138,3.943-11.475,5.211-14.073
			c0,0-0.402-0.598-2.91-0.598c-4.281,0-9.996,8.707-9.996,8.707l0.854-5.382h-8.902l-5.963,37.132H268.266L268.266,158.389z"/>
		<path fill="#21205F" d="M325.667,120.334c-6.557,0-11.581,2.112-11.581,2.112l-1.387,8.252c0,0,4.149-1.689,10.416-1.689
			c3.561,0,6.164,0.401,6.164,3.301c0,1.761-0.316,2.41-0.316,2.41s-2.809-0.234-4.109-0.234c-9.334,0-16.952,3.535-16.952,14.195
			c0,8.403,5.698,10.327,9.229,10.327c6.743,0,9.415-4.267,9.568-4.278l-0.079,3.542h8.419l3.755-26.383
			C338.794,120.694,329.049,120.334,325.667,120.334z M327.121,141.758c0.186,1.608-0.414,9.225-6.172,9.225
			c-2.971,0-3.74-2.275-3.74-3.615c0-2.624,1.42-5.771,8.425-5.771C327.266,141.596,326.849,141.712,327.121,141.758z"/>
		<path fill="#21205F" d="M348.482,158.389c1.527-11.664,4.355-28.042,11.887-25.785c1.165-6.138,0.043-6.122-2.465-6.122
			c-4.285,0-5.232,0.156-5.232,0.156l0.855-5.382h-8.902l-5.962,37.133H348.482L348.482,158.389z"/>
	</g>
	<g>
		<path fill="#FFFFFF" d="M214.067,170.907l1.198-8.141c-0.653,0-1.616,0.281-2.463,0.281c-3.328,0-3.695-1.773-3.482-3.086
			l2.688-16.616h5.057l1.221-9.007h-4.767l0.969-5.601h-9.558c-0.21,0.21-5.643,31.503-5.643,35.313c0,5.64,3.16,8.153,7.615,8.113
			C210.392,172.136,213.11,171.166,214.067,170.907z"/>
		<path fill="#FFFFFF" d="M217.097,155.384c0,13.538,8.917,16.756,16.515,16.756c7.012,0,10.098-1.573,10.098-1.573l1.684-9.238
			c0,0-5.334,2.355-10.151,2.355c-10.265,0-8.468-7.67-8.468-7.67h19.428c0,0,1.254-6.208,1.254-8.738
			c0-6.312-3.135-14.003-13.63-14.003C224.213,133.274,217.097,143.652,217.097,155.384z M233.86,141.852
			c5.395,0,4.399,6.075,4.399,6.567h-10.612C227.647,147.791,228.651,141.852,233.86,141.852z"/>
		<path fill="#FFFFFF" d="M294.395,170.903l1.709-10.442c0,0-4.689,2.356-7.908,2.356c-6.781,0-9.502-5.189-9.502-10.765
			c0-11.31,5.835-17.531,12.332-17.531c4.869,0,8.779,2.741,8.779,2.741l1.561-10.147c0,0-5.797-2.351-10.766-2.351
			c-11.037,0-21.773,9.594-21.773,27.614c0,11.946,5.798,19.839,17.207,19.839C289.258,172.218,294.395,170.903,294.395,170.903z"/>
		<path fill="#FFFFFF" d="M161.491,133.422c-6.553,0-11.58,2.11-11.58,2.11l-1.386,8.253c0,0,4.146-1.688,10.416-1.688
			c3.56,0,6.165,0.4,6.165,3.3c0,1.761-0.319,2.412-0.319,2.412s-2.807-0.236-4.107-0.236c-8.269,0-16.953,3.536-16.953,14.196
			c0,8.399,5.698,10.33,9.229,10.33c6.744,0,9.651-4.387,9.806-4.399l-0.314,3.658h8.417l3.756-26.384
			C174.619,133.781,164.876,133.422,161.491,133.422z M163.539,154.903c0.184,1.609-1.007,9.165-6.764,9.165
			c-2.968,0-3.74-2.273-3.74-3.616c0-2.622,1.42-5.771,8.426-5.771C163.09,154.683,163.264,154.858,163.539,154.903z"/>
		<path fill="#FFFFFF" d="M183.565,171.903c2.154,0,14.462,0.55,14.462-12.183c0-11.898-11.394-9.548-11.394-14.329
			c0-2.38,1.857-3.129,5.251-3.129c1.348,0,6.532,0.43,6.532,0.43l1.208-8.46c0,0.001-3.357-0.752-8.822-0.752
			c-7.071,0-14.25,2.829-14.25,12.509c0,10.968,11.97,9.868,11.97,14.489c0,3.082-3.345,3.333-5.921,3.333
			c-4.459,0-8.474-1.532-8.489-1.46l-1.275,8.375C173.068,170.796,175.545,171.903,183.565,171.903z"/>
		<path fill="#FFFFFF" d="M373.578,125.831l-2.062,12.822c0,0-3.598-4.98-9.23-4.98c-8.76,0-16.061,10.583-16.061,22.744
			c0,7.851,3.895,15.54,11.855,15.54c5.727,0,8.9-4.002,8.9-4.002l-0.421,3.418h9.298l7.304-45.557L373.578,125.831z
			 M369.139,150.832c0,5.06-2.5,11.818-7.684,11.818c-3.439,0-5.052-2.895-5.052-7.436c0-7.427,3.329-12.328,7.528-12.328
			C367.373,142.885,369.139,145.254,369.139,150.832z"/>
		<path fill="#FFFFFF" d="M109.731,171.411l5.82-34.393l0.854,34.393h6.586l12.285-34.393l-5.441,34.393h9.786l7.538-45.617h-15.135
			l-9.424,27.989l-0.49-27.989H108.16l-7.645,45.617H109.731z"/>
		<path fill="#FFFFFF" d="M257.016,171.475c2.783-15.858,3.299-28.734,9.938-26.376c1.163-6.138,2.285-8.512,3.554-11.11
			c0,0-0.595-0.124-1.845-0.124c-4.279,0-7.451,5.861-7.451,5.861l0.852-5.383h-8.9l-5.963,37.132H257.016z"/>
		<path fill="#FFFFFF" d="M316.451,133.422c-6.555,0-11.58,2.11-11.58,2.11l-1.385,8.253c0,0,4.147-1.688,10.416-1.688
			c3.561,0,6.162,0.4,6.162,3.3c0,1.761-0.316,2.412-0.316,2.412s-2.809-0.236-4.109-0.236c-8.268,0-16.951,3.536-16.951,14.196
			c0,8.399,5.697,10.33,9.229,10.33c6.744,0,9.65-4.387,9.805-4.399l-0.312,3.658c0,0,8.414,0,8.416,0l3.755-26.384
			C329.581,133.781,319.836,133.422,316.451,133.422z M318.502,154.903c0.184,1.609-1.008,9.165-6.766,9.165
			c-2.969,0-3.738-2.273-3.738-3.616c0-2.622,1.42-5.771,8.425-5.771C318.053,154.683,318.225,154.858,318.502,154.903z"/>
		<path fill="#FFFFFF" d="M337.271,171.475c2.784-15.858,3.301-28.734,9.938-26.376c1.164-6.138,2.288-8.512,3.554-11.11
			c0,0-0.596-0.124-1.842-0.124c-4.281,0-7.453,5.861-7.453,5.861l0.853-5.383h-8.901l-5.963,37.132H337.271z"/>
	</g>
</g>
</svg>