<svg version="1.1" id="card_amex" xmlns="http://www.w3.org/2000/svg" xmlns:xlink="http://www.w3.org/1999/xlink" x="0px" y="0px"
	 width="473.685px" height="300px" viewBox="3.158 0 473.685 300" enable-background="new 3.158 0 473.685 300"
	 xml:space="preserve">
<g>
	<linearGradient id="lg_gradient_2" gradientUnits="userSpaceOnUse" x1="240" y1="1" x2="240" y2="342.0226">
		<stop  offset="0" style="stop-color:#9DD5F6"/>
		<stop  offset="0.5" style="stop-color:#0DA6E0"/>
		<stop  offset="1" style="stop-color:#2E77BC"/>
	</linearGradient>
	<path fill="url(#lg_gradient_2)" d="M476.843,252.632c0,26.053-21.315,47.368-47.368,47.368H50.526
		c-26.053,0-47.369-21.315-47.369-47.368V47.368C3.158,21.316,24.474,0,50.526,0h378.948c26.053,0,47.368,21.316,47.368,47.368
		V252.632z"/>
	<g opacity="0.7">
		<path fill="#89CEF3" d="M429.475,15.79c17.412,0,31.578,14.166,31.578,31.579v205.264c0,17.412-14.166,31.579-31.578,31.579
			H50.526c-17.413,0-31.579-14.167-31.579-31.579V47.368c0-17.413,14.167-31.579,31.579-31.579H429.475 M429.475,0H50.526
			C24.474,0,3.158,21.316,3.158,47.368v205.264C3.158,278.685,24.474,300,50.526,300h378.948c26.053,0,47.368-21.315,47.368-47.368
			V47.368C476.843,21.316,455.527,0,429.475,0L429.475,0z"/>
	</g>
	<g>
		<path fill="#197AB9" d="M429.475,7.895c21.766,0,39.474,17.708,39.474,39.474v205.264c0,21.766-17.708,39.474-39.474,39.474
			H50.526c-21.766,0-39.474-17.708-39.474-39.474V47.368c0-21.766,17.708-39.474,39.474-39.474H429.475 M429.475,0H50.526
			C24.474,0,3.158,21.316,3.158,47.368v205.264C3.158,278.685,24.474,300,50.526,300h378.948c26.053,0,47.368-21.315,47.368-47.368
			V47.368C476.843,21.316,455.527,0,429.475,0L429.475,0z"/>
	</g>
</g>
<g>
	<path fill="#2E77BC" d="M72.399,110.095l-7.972-20.292l-7.918,20.292 M247.647,101.961c-1.588,1.063-3.484,1.103-5.728,1.103
		h-14.148V91.707h14.325c2.013,0,4.132,0.139,5.505,0.902c1.519,0.81,2.498,2.383,2.498,4.503
		C250.1,99.34,249.158,101.182,247.647,101.961 M348.367,110.095l-8.003-20.292l-7.986,20.292H348.367z M160.583,132.067h-11.858
		l-0.046-39.944l-16.93,39.944h-10.154l-16.946-39.944v39.944H81.002l-4.417-11.418H52.369l-4.495,11.418H35.238l20.824-50.969
		H73.27l19.775,48.271V81.098h19.027l15.234,34.578l13.908-34.578h19.367V132.067L160.583,132.067z M208.089,132.067h-38.787V81.098
		h38.787v10.609h-27.153v9.229h26.506v10.377h-26.506v10.161h27.153V132.067z M262.859,94.783c0,8.188-5.173,12.397-8.188,13.654
		c2.528,1.025,4.71,2.807,5.735,4.233c1.65,2.537,1.935,4.795,1.935,9.39v10.007h-11.733l-0.046-6.422
		c0-3.06,0.285-7.471-1.827-9.969c-1.696-1.773-4.279-2.189-8.481-2.189h-12.482v18.581h-11.603V81.098h26.722
		c5.928,0,10.308,0.216,14.085,2.49C260.646,85.871,262.859,89.125,262.859,94.783 M281.417,132.067h-11.819V81.098h11.819V132.067z
		 M419.104,132.067h-16.538l-21.995-38.209v38.209h-23.653l-4.595-11.418h-24.116l-4.372,11.418h-13.653
		c-5.59,0-12.768-1.295-16.8-5.698c-4.102-4.263-6.229-10.177-6.229-19.374c0-7.548,1.272-14.448,6.276-19.906
		c3.754-4.055,9.645-5.991,17.616-5.991h11.295V92.07h-11.024c-4.233,0-6.686,0.601-8.937,3.006
		c-2.012,2.143-3.354,6.19-3.354,11.534c0,5.451,1.041,9.383,3.208,11.966c1.788,1.958,5.011,2.613,8.095,2.613h5.227l16.392-40.09
		h17.354l19.682,48.217V81.098h17.71l20.492,35.465V81.098h11.92V132.067z M35.076,142.067h19.891l4.479-11.295h9.968l4.526,11.295
		h39.087v-8.635l3.485,8.673h20.269l3.461-8.812v8.774h97.135l-0.039-18.565h1.881c1.327,0.054,1.704,0.169,1.704,2.382v16.183
		h50.244v-4.318c3.994,2.274,10.354,4.318,18.581,4.318h21.194l4.548-11.295h9.945l4.487,11.295h40.677v-10.794l6.222,10.794h32.65
		V71.053h-32.312v8.388l-4.571-8.388h-33.098v8.388l-4.21-8.388h-44.701c-7.509,0-14.132,1.095-19.413,4.156v-4.156h-30.9v4.156
		c-3.385-3.153-8.01-4.156-13.145-4.156H134.261l-7.524,18.349l-7.787-18.349H83.408v8.388L79.5,71.053H49.185l-14.117,33.769
		l-16.121,37.246H35.076z"/>
	<path fill="#FFFFFF" d="M72.399,117.989l-7.972-20.292l-7.918,20.292 M247.647,109.855c-1.588,1.063-3.484,1.103-5.728,1.103
		h-14.148V99.602h14.325c2.013,0,4.132,0.139,5.505,0.902c1.519,0.81,2.498,2.383,2.498,4.503
		C250.1,107.234,249.158,109.077,247.647,109.855 M348.367,117.989l-8.003-20.292l-7.986,20.292H348.367z M160.583,139.962h-11.858
		l-0.046-39.944l-16.93,39.944h-10.154l-16.946-39.944v39.944H81.002l-4.417-11.418H52.369l-4.495,11.418H35.238l20.824-50.969
		H73.27l19.775,48.271V88.993h19.027l15.234,34.578l13.908-34.578h19.367V139.962L160.583,139.962z M208.089,139.962h-38.787V88.993
		h38.787v10.609h-27.153v9.229h26.506v10.377h-26.506v10.161h27.153V139.962z M262.859,102.678c0,8.188-5.173,12.397-8.188,13.654
		c2.528,1.025,4.71,2.807,5.735,4.233c1.65,2.537,1.935,4.795,1.935,9.39v10.007h-11.733l-0.046-6.422
		c0-3.06,0.285-7.471-1.827-9.969c-1.696-1.773-4.279-2.189-8.481-2.189h-12.482v18.581h-11.603V88.993h26.722
		c5.928,0,10.308,0.216,14.085,2.49C260.646,93.765,262.859,97.019,262.859,102.678 M281.417,139.962h-11.819V88.993h11.819V139.962
		z M419.104,139.962h-16.538l-21.995-38.209v38.209h-23.653l-4.595-11.418h-24.116l-4.372,11.418h-13.653
		c-5.59,0-12.768-1.295-16.8-5.698c-4.102-4.263-6.229-10.177-6.229-19.374c0-7.548,1.272-14.448,6.276-19.906
		c3.754-4.055,9.645-5.991,17.616-5.991h11.295v10.972h-11.024c-4.233,0-6.686,0.601-8.937,3.006
		c-2.012,2.143-3.354,6.19-3.354,11.534c0,5.451,1.041,9.383,3.208,11.966c1.788,1.958,5.011,2.613,8.095,2.613h5.227l16.392-40.09
		h17.354l19.682,48.217V88.993h17.71l20.492,35.465V88.993h11.92V139.962z M35.076,149.962h19.891l4.479-11.295h9.968l4.526,11.295
		h39.087v-8.635l3.485,8.673h20.269l3.461-8.812v8.774h97.135l-0.039-18.565h1.881c1.327,0.054,1.704,0.169,1.704,2.382v16.183
		h50.244v-4.318c3.994,2.274,10.354,4.318,18.581,4.318h21.194l4.548-11.295h9.945l4.487,11.295h40.677v-10.794l6.222,10.794h32.65
		V78.947h-32.312v8.388l-4.571-8.388h-33.098v8.388l-4.21-8.388h-44.701c-7.509,0-14.132,1.095-19.413,4.156v-4.156h-30.9v4.156
		c-3.385-3.153-8.01-4.156-13.145-4.156H134.261l-7.524,18.349l-7.787-18.349H83.408v8.388L79.5,78.947H49.185l-14.117,33.769
		l-16.121,37.246H35.076z"/>
</g>
<g>
	<path fill="#2E77BC" d="M449.457,190.522v-32.628h-7.956l0,0h-20.863c-6.46,0-11.086,1.665-14.448,4.187v-4.187h-31.47
		c-5.089,0-11.041,1.304-13.816,4.187v-4.187h-56.288v4.187c-4.464-3.408-12.027-4.187-15.521-4.187h-37.191v4.187
		c-3.484-3.631-11.379-4.187-16.182-4.187h-41.579l-9.498,10.895l-8.905-10.895h-62.056v71.054h60.875l9.792-11.08l9.251,11.08
		h37.539v-16.662h3.709c4.98,0.086,10.855-0.192,16.043-2.489v19.151h30.97v-18.504h1.504c1.904,0,2.111,0.092,2.111,2.042v16.462
		h94.028c5.975,0,12.235-1.604,15.682-4.519v4.519h29.837c6.26,0,12.281-0.887,16.898-3.262v-0.069
		c6.771-4.542,11.233-12.482,11.233-21.541C453.157,199.088,451.793,194.446,449.457,190.522z M235.32,201.825h-14.34v17.139
		h-22.389l-14.193-16.854l-14.733,16.854h-45.642v-50.908h46.335l14.187,16.685l14.656-16.685h36.798
		c9.113,0,19.413,2.676,19.413,16.77C255.411,198.965,245.428,201.825,235.32,201.825z M304.63,199.589
		c1.689,2.475,1.92,4.811,1.967,9.298v10.077h-11.572v-6.422c0-3.016,0.246-7.572-1.904-9.908c-1.696-1.826-4.248-2.259-8.465-2.259
		h-12.312v18.589h-11.519v-50.908h26.591c5.781,0,10.022,0.271,13.815,2.391c3.692,2.328,5.936,5.512,5.936,11.318
		c0,8.103-5.103,12.265-8.117,13.484C301.624,196.305,303.705,198.093,304.63,199.589z M351.982,178.588h-26.96v9.251h26.352v10.393
		h-26.352v10.123l26.96,0.055v10.555h-38.439v-50.908h38.439V178.588z M381.319,218.964h-22.374v-10.917h22.289
		c2.189,0,3.731-0.362,4.702-1.304c0.795-0.74,1.365-1.881,1.365-3.269c0-1.495-0.617-2.667-1.403-3.423
		c-0.887-0.732-2.104-1.087-4.102-1.087c-10.771-0.37-24.263,0.354-24.263-15.79c0-7.348,4.449-15.111,16.461-15.111h23.098v10.824
		H376.03c-2.151,0-3.478,0.086-4.695,0.91c-1.249,0.779-1.704,2.074-1.704,3.67c0,1.928,1.057,3.246,2.552,3.747
		c1.234,0.439,2.537,0.624,4.441,0.624l6.198,0.193c6.307,0.093,10.616,1.295,13.168,4.024c2.229,2.506,3.431,5.597,3.431,10.84
		C399.421,213.852,392.991,218.964,381.319,218.964z M440.638,214.044c-3.053,3.254-7.957,4.92-14.333,4.92h-22.227v-10.917h22.119
		c2.212,0,3.801-0.362,4.664-1.304c0.833-0.74,1.364-1.881,1.364-3.269c0-1.495-0.531-2.667-1.379-3.423
		c-0.849-0.732-2.082-1.087-4.079-1.087c-10.786-0.37-24.316,0.354-24.316-15.79c0-7.348,4.448-15.111,16.521-15.111h22.528v10.824
		h-20.562c-2.097,0-3.5,0.086-4.656,0.91c-1.18,0.779-1.688,2.074-1.688,3.67c0,1.928,1.019,3.237,2.514,3.739
		c1.226,0.439,2.528,0.632,4.44,0.632l6.245,0.186c6.299,0.101,10.501,1.303,13.075,4.032c0.463,0.478,0.732,0.887,1.056,1.326
		c-0.114-0.185-0.245-0.439-0.393-0.532c2.012,2.76,3.208,6.26,3.208,9.961C444.739,207.16,443.182,211.1,440.638,214.044z
		 M164.383,178.588l12.605,14.833l-13.114,14.934h-28.38v-10.123h25.295v-10.393h-25.295v-9.251H164.383z M191.822,193.599
		l17.686-20.146v40.839L191.822,193.599z M243.022,184.825c0,4.402-2.722,6.723-7.163,6.723h-14.88v-12.96h15.019
		C240.162,178.588,243.022,180.376,243.022,184.825z M294.415,184.062c0,2.205-0.848,3.963-2.328,4.919
		c-1.542,0.895-3.454,1.04-5.744,1.04h-14v-11.433h14.231c2.059,0,4.056,0.046,5.513,0.917
		C293.567,180.33,294.415,181.872,294.415,184.062z"/>
	<path fill="#FFFFFF" d="M449.457,198.417v-32.628h-7.956l0,0h-20.863c-6.46,0-11.086,1.665-14.448,4.187v-4.187h-31.47
		c-5.089,0-11.041,1.304-13.816,4.187v-4.187h-56.288v4.187c-4.464-3.408-12.027-4.187-15.521-4.187h-37.191v4.187
		c-3.484-3.631-11.379-4.187-16.182-4.187h-41.579l-9.498,10.895l-8.905-10.895h-62.056v71.054h60.875l9.792-11.08l9.251,11.08
		h37.539v-16.662h3.709c4.98,0.086,10.855-0.192,16.043-2.489v19.151h30.97v-18.504h1.504c1.904,0,2.111,0.092,2.111,2.042v16.462
		h94.028c5.975,0,12.235-1.604,15.682-4.519v4.519h29.837c6.26,0,12.281-0.887,16.898-3.262v-0.069
		c6.771-4.542,11.233-12.482,11.233-21.541C453.157,206.982,451.793,202.341,449.457,198.417z M235.32,209.72h-14.34v17.139h-22.389
		l-14.193-16.854l-14.733,16.854h-45.642V175.95h46.335l14.187,16.685L199.2,175.95h36.798c9.113,0,19.413,2.676,19.413,16.77
		C255.411,206.859,245.428,209.72,235.32,209.72z M304.63,207.483c1.689,2.475,1.92,4.811,1.967,9.298v10.077h-11.572v-6.422
		c0-3.016,0.246-7.572-1.904-9.908c-1.696-1.826-4.248-2.259-8.465-2.259h-12.312v18.589h-11.519V175.95h26.591
		c5.781,0,10.022,0.271,13.815,2.391c3.692,2.328,5.936,5.512,5.936,11.318c0,8.103-5.103,12.265-8.117,13.484
		C301.624,204.199,303.705,205.987,304.63,207.483z M351.982,186.482h-26.96v9.251h26.352v10.393h-26.352v10.123l26.96,0.055v10.555
		h-38.439V175.95h38.439V186.482z M381.319,226.858h-22.374v-10.917h22.289c2.189,0,3.731-0.362,4.702-1.304
		c0.795-0.74,1.365-1.881,1.365-3.269c0-1.495-0.617-2.667-1.403-3.423c-0.887-0.732-2.104-1.087-4.102-1.087
		c-10.771-0.37-24.263,0.354-24.263-15.79c0-7.348,4.449-15.111,16.461-15.111h23.098v10.824H376.03
		c-2.151,0-3.478,0.086-4.695,0.91c-1.249,0.779-1.704,2.074-1.704,3.67c0,1.928,1.057,3.246,2.552,3.747
		c1.234,0.439,2.537,0.624,4.441,0.624l6.198,0.193c6.307,0.093,10.616,1.295,13.168,4.024c2.229,2.506,3.431,5.597,3.431,10.84
		C399.421,221.746,392.991,226.858,381.319,226.858z M440.638,221.938c-3.053,3.254-7.957,4.92-14.333,4.92h-22.227v-10.917h22.119
		c2.212,0,3.801-0.362,4.664-1.304c0.833-0.74,1.364-1.881,1.364-3.269c0-1.495-0.531-2.667-1.379-3.423
		c-0.849-0.732-2.082-1.087-4.079-1.087c-10.786-0.37-24.316,0.354-24.316-15.79c0-7.348,4.448-15.111,16.521-15.111h22.528v10.824
		h-20.562c-2.097,0-3.5,0.086-4.656,0.91c-1.18,0.779-1.688,2.074-1.688,3.67c0,1.928,1.019,3.237,2.514,3.739
		c1.226,0.439,2.528,0.632,4.44,0.632l6.245,0.186c6.299,0.101,10.501,1.303,13.075,4.032c0.463,0.478,0.732,0.887,1.056,1.326
		c-0.114-0.185-0.245-0.439-0.393-0.532c2.012,2.76,3.208,6.26,3.208,9.961C444.739,215.055,443.182,218.994,440.638,221.938z
		 M164.383,186.482l12.605,14.833l-13.114,14.934h-28.38v-10.123h25.295v-10.393h-25.295v-9.251H164.383z M191.822,201.493
		l17.686-20.146v40.839L191.822,201.493z M243.022,192.72c0,4.402-2.722,6.723-7.163,6.723h-14.88v-12.96h15.019
		C240.162,186.482,243.022,188.271,243.022,192.72z M294.415,191.956c0,2.205-0.848,3.963-2.328,4.919
		c-1.542,0.895-3.454,1.04-5.744,1.04h-14v-11.433h14.231c2.059,0,4.056,0.046,5.513,0.917
		C293.567,188.225,294.415,189.767,294.415,191.956z"/>
</g>
</svg>