<svg version="1.1" id="card_visa" xmlns="http://www.w3.org/2000/svg" xmlns:xlink="http://www.w3.org/1999/xlink" x="0px" y="0px"
	 width="480px" height="300px" viewBox="0 1 480 300" enable-background="new 0 1 480 300" xml:space="preserve">
<g>
	<linearGradient id="lg_gradient_1" gradientUnits="userSpaceOnUse" x1="239.9995" y1="2" x2="239.9995" y2="297.8953">
		<stop  offset="0" style="stop-color:#FFFFFF"/>
		<stop  offset="1" style="stop-color:#CFCFCF"/>
	</linearGradient>
	<path fill="url(#lg_gradient_1)" d="M480,271c0,16.5-13.5,30-30,30H30c-16.5,0-30-13.5-30-30V31C0,14.5,13.5,1,30,1h420
		c16.5,0,30,13.5,30,30V271z"/>
	<g>
		<path fill="#CFCFCF" d="M450,2c15.99,0,29,13.009,29,29v240c0,15.99-13.01,29-29,29H30c-15.991,0-29-13.01-29-29V31
			C1,15.009,14.009,2,30,2H450 M450,1H30C13.5,1,0,14.5,0,31v240c0,16.5,13.5,30,30,30h420c16.5,0,30-13.5,30-30V31
			C480,14.5,466.5,1,450,1L450,1z"/>
	</g>
</g>
<path fill="#FFFFFF" d="M449,299H31c-16.5,0-30-13.5-30-30v1c0,16.5,13.5,30,30,30h418c16.5,0,30-13.5,30-30v-1
	C479,285.5,465.5,299,449,299z"/>
<g>
	<g>
		<g>
			<polygon fill="#FFFFFF" points="201,84 180,207.999 214,207.999 235,84 			"/>
			<path fill="#FFFFFF" d="M301.541,133.941c-11.885-5.74-19.164-9.564-19.088-15.372c0.002-5.156,6.162-10.667,19.474-10.667
				c11.121-0.176,19.175,2.238,25.45,4.75l3.048,1.428l4.61-26.874C328.297,84.691,317.74,82,304.557,82
				c-33.599-0.003-57.269,16.818-57.469,40.923c-0.189,17.818,16.896,27.759,29.795,33.689c13.236,6.074,17.686,9.955,17.622,15.382
				c-0.083,8.309-10.57,12.109-20.343,12.109c-13.61-0.002-20.841-1.878-32.008-6.508l-4.382-1.975L233,203.382
				c7.943,3.462,22.629,6.462,37.879,6.618c35.744-0.002,58.947-16.625,59.211-42.366
				C330.219,153.525,321.159,142.792,301.541,133.941z"/>
			<path fill="#FFFFFF" d="M419,84h-26c-8.139,0-14.031,2.482-17.607,10.557L325,208h36l7-19h43l4,19h32L419,84z M377.546,164.198
				c2.812-7.146,13.546-34.662,13.546-34.662c-0.198,0.328,2.792-7.179,4.51-11.835l2.302,10.688c0,0,6.507,29.604,7.87,35.812
				L377.546,164.198z"/>
			<path fill="#FFFFFF" d="M152,84l-34,85l-3-17l-12.321-57.415C100.621,86.733,94.384,84.276,87,84H31v2
				c13.778,3.314,26.187,8.271,37.082,14.458L98,208h36l54-124H152z"/>
		</g>
	</g>
</g>
<g>
	<polygon fill="#002295" points="180,206.999 201,83 235,83 214,206.999 	"/>
	<path fill="#002295" d="M335.035,86.208C328.297,83.691,317.74,81,304.557,81c-33.599-0.003-57.269,16.818-57.469,40.923
		c-0.189,17.818,16.896,27.759,29.795,33.689c13.236,6.074,17.686,9.955,17.622,15.382c-0.083,8.309-10.57,12.109-20.343,12.109
		c-13.61-0.002-20.841-1.878-32.008-6.508l-4.382-1.975L233,202.382c7.943,3.462,22.629,6.462,37.879,6.618
		c35.744-0.002,58.947-16.625,59.211-42.366c0.129-14.108-8.931-24.842-28.549-33.692c-11.885-5.74-19.164-9.564-19.088-15.372
		c0.002-5.156,6.162-10.667,19.474-10.667c11.121-0.176,19.175,2.238,25.45,4.75l3.048,1.428L335.035,86.208L335.035,86.208z"/>
	<path fill="#002295" d="M393,83c-8.139,0-14.031,2.482-17.607,10.557L325,207h36l7-19h43l4,19h32L419,83H393z M377.546,163.198
		c2.812-7.146,13.546-34.662,13.546-34.662c-0.198,0.328,2.792-7.179,4.51-11.835l2.302,10.688c0,0,6.507,29.604,7.87,35.812
		L377.546,163.198L377.546,163.198z"/>
	<path fill="#002295" d="M118,168l-3-17c-6.197-19.813-25.458-41.255-47.046-52L98,207h36l54-124h-36L118,168z"/>
	<path fill="#FB9905" d="M31,83v2c42.658,10.262,72.283,36.196,84,66l-12.321-57.415C100.621,85.733,94.384,83.276,87,83H31z"/>
</g>
</svg>